<svg width="158" height="101" viewBox="0 0 158 101" fill="none" xmlns="http://www.w3.org/2000/svg">
<path d="M103.047 39.9091H105.092C104.999 37.2756 102.57 35.3068 99.1946 35.3068C95.8537 35.3068 93.2287 37.25 93.2287 40.1818C93.2287 42.5341 94.9333 43.9318 97.6606 44.7159L99.8083 45.3295C101.649 45.8409 103.286 46.4886 103.286 48.2273C103.286 50.1364 101.445 51.3977 99.0242 51.3977C96.9446 51.3977 95.1037 50.4773 94.9333 48.5H92.7515C92.956 51.3636 95.2742 53.3068 99.0242 53.3068C103.047 53.3068 105.331 51.0909 105.331 48.2614C105.331 44.9886 102.229 43.9318 100.422 43.4545L98.6492 42.9773C97.3537 42.6364 95.2742 41.9545 95.2742 40.0795C95.2742 38.4091 96.8083 37.1818 99.1265 37.1818C101.24 37.1818 102.842 38.1875 103.047 39.9091ZM114.227 39.9091H111.431V36.7727H109.42V39.9091H107.443V41.6136H109.42V49.7955C109.42 52.0795 111.261 53.1705 112.965 53.1705C113.715 53.1705 114.193 53.0341 114.465 52.9318L114.056 51.125C113.886 51.1591 113.613 51.2273 113.17 51.2273C112.283 51.2273 111.431 50.9545 111.431 49.25V41.6136H114.227V39.9091ZM121.104 53.3068C123.389 53.3068 124.582 52.0795 124.991 51.2273H125.093V53H127.104V44.375C127.104 40.2159 123.934 39.7386 122.264 39.7386C120.286 39.7386 118.036 40.4205 117.014 42.8068L118.923 43.4886C119.366 42.5341 120.414 41.5114 122.332 41.5114C124.181 41.5114 125.093 42.4915 125.093 44.1705V44.2386C125.093 45.2102 124.104 45.125 121.718 45.4318C119.289 45.7472 116.639 46.2841 116.639 49.2841C116.639 51.8409 118.616 53.3068 121.104 53.3068ZM121.411 51.5C119.809 51.5 118.65 50.7841 118.65 49.3864C118.65 47.8523 120.048 47.375 121.616 47.1705C122.468 47.0682 124.752 46.8295 125.093 46.4205V48.2614C125.093 49.8977 123.798 51.5 121.411 51.5ZM136.06 58.1818C139.196 58.1818 141.719 56.75 141.719 53.375V39.9091H139.776V41.9886H139.571C139.128 41.3068 138.31 39.7386 135.753 39.7386C132.446 39.7386 130.162 42.3636 130.162 46.3864C130.162 50.4773 132.548 52.7955 135.719 52.7955C138.276 52.7955 139.094 51.2955 139.537 50.5795H139.707V53.2386C139.707 55.4205 138.173 56.4091 136.06 56.4091C133.682 56.4091 132.847 55.1562 132.31 54.4318L130.707 55.5568C131.526 56.929 133.136 58.1818 136.06 58.1818ZM135.992 50.9886C133.469 50.9886 132.173 49.0795 132.173 46.3523C132.173 43.6932 133.435 41.5455 135.992 41.5455C138.446 41.5455 139.742 43.5227 139.742 46.3523C139.742 49.25 138.412 50.9886 135.992 50.9886ZM150.889 53.2727C153.548 53.2727 155.492 51.9432 156.105 49.9659L154.162 49.4205C153.651 50.7841 152.466 51.4659 150.889 51.4659C148.528 51.4659 146.901 49.9403 146.807 47.1364H156.31V46.2841C156.31 41.4091 153.412 39.7386 150.685 39.7386C147.139 39.7386 144.787 42.5341 144.787 46.5568C144.787 50.5795 147.105 53.2727 150.889 53.2727ZM146.807 45.3977C146.943 43.3608 148.384 41.5455 150.685 41.5455C152.867 41.5455 154.264 43.1818 154.264 45.3977H146.807ZM85.733 79H89.4233V73.3409H92.5256C96.5398 73.3409 98.875 70.946 98.875 67.4602C98.875 63.9915 96.5824 61.5455 92.6194 61.5455H85.733V79ZM89.4233 70.3835V64.5625H91.912C94.0427 64.5625 95.0739 65.7216 95.0739 67.4602C95.0739 69.1903 94.0427 70.3835 91.929 70.3835H89.4233ZM104.835 61.5455H101.204V79H104.835V61.5455ZM111.476 79.2472C113.411 79.2472 114.663 78.4034 115.303 77.1847H115.405V79H118.848V70.1705C118.848 67.0511 116.206 65.7386 113.291 65.7386C110.155 65.7386 108.092 67.2386 107.59 69.625L110.947 69.8977C111.195 69.0284 111.97 68.3892 113.274 68.3892C114.51 68.3892 115.217 69.0114 115.217 70.0852V70.1364C115.217 70.9801 114.322 71.0909 112.047 71.3125C109.456 71.5511 107.129 72.4205 107.129 75.3438C107.129 77.9347 108.979 79.2472 111.476 79.2472ZM112.516 76.7415C111.399 76.7415 110.598 76.2216 110.598 75.2244C110.598 74.2017 111.442 73.6989 112.72 73.5199C113.513 73.4091 114.808 73.2216 115.243 72.9318V74.321C115.243 75.6932 114.109 76.7415 112.516 76.7415ZM123.438 83.9091C126.139 83.9091 127.571 82.5284 128.313 80.4148L133.401 65.9261L129.557 65.9091L126.821 75.5227H126.685L123.974 65.9091H120.156L124.852 79.375L124.639 79.929C124.162 81.1562 123.25 81.2159 121.972 80.8239L121.153 83.5341C121.673 83.7557 122.517 83.9091 123.438 83.9091ZM140.779 79.2557C144.018 79.2557 146.2 77.679 146.711 75.25L143.353 75.0284C142.987 76.0256 142.049 76.5455 140.839 76.5455C139.023 76.5455 137.873 75.3438 137.873 73.392V73.3835H146.788V72.3864C146.788 67.9375 144.095 65.7386 140.634 65.7386C136.782 65.7386 134.285 68.4744 134.285 72.5142C134.285 76.6648 136.748 79.2557 140.779 79.2557ZM137.873 71.1335C137.95 69.642 139.083 68.4489 140.694 68.4489C142.271 68.4489 143.362 69.5739 143.37 71.1335H137.873ZM149.157 79H152.788V71.5938C152.788 69.983 153.964 68.875 155.566 68.875C156.069 68.875 156.759 68.9602 157.1 69.071V65.8494C156.776 65.7727 156.325 65.7216 155.958 65.7216C154.492 65.7216 153.291 66.5739 152.813 68.1932H152.677V65.9091H149.157V79Z" fill="black"/>
<path d="M39.4146 19.7073L49.5639 40.2686L72.2601 43.586L55.8374 59.5817L59.7131 82.1795L39.4146 71.5047L19.1161 82.1795L22.9919 59.5817L6.56909 43.586L29.2653 40.2686L39.4146 19.7073Z" stroke="#111111" stroke-width="2" stroke-linecap="round" stroke-linejoin="round"/>
<g clip-path="url(#clip0_115_1408)">
<path d="M75.3424 43.7615L19.0172 83.7102L37.2923 17.1186L48.3244 41.8551L75.3424 43.7615Z" stroke="#111111" stroke-width="2" stroke-linecap="round" stroke-linejoin="round"/>
</g>
<defs>
<clipPath id="clip0_115_1408">
<rect width="78.8293" height="78.8293" fill="white" transform="translate(91.3203 77.6316) rotate(170)"/>
</clipPath>
</defs>
</svg>
